PathFileType	4	(X/Y/Z)	S00_P01_T02_Participants1-2_P1_0-100.trc
DataRate	CameraRate	NumFrames	NumMarkers	Units	OrigDataRate	OrigDataStartFrame	OrigNumFrames
60	60	8	21	m	60	87	100
Frame#	Time	RHip			RKnee			RAnkle			RBigToe			RSmallToe			RHeel			LHip			LKnee			LAnkle			LBigToe			LSmallToe			LHeel			Neck			Head			Nose			RShoulder			RElbow			RWrist			LShoulder			LElbow			LWrist		
		X1	Y1	Z1	X2	Y2	Z2	X3	Y3	Z3	X4	Y4	Z4	X5	Y5	Z5	X6	Y6	Z6	X7	Y7	Z7	X8	Y8	Z8	X9	Y9	Z9	X10	Y10	Z10	X11	Y11	Z11	X12	Y12	Z12	X13	Y13	Z13	X14	Y14	Z14	X15	Y15	Z15	X16	Y16	Z16	X17	Y17	Z17	X18	Y18	Z18	X19	Y19	Z19	X20	Y20	Z20	X21	Y21	Z21
88	1.4666666666666666	-1.0510310770872107	0.9408257837630123	-0.9743396261657918	-0.8758471325439676	0.9301923645468473	-0.7312642833711049	-0.8728062132927136	0.9026669731509305	-0.9649631408546483	-0.7735081326225122	0.8970022107238764	-1.0394719134812767	-0.7962535584345348	0.8765237270942636	-1.0342399545305383	-0.893311507553002	0.9081976748473384	-1.0082137151740593	-1.0515817999862207	0.9414405573083428	-1.118520076821194	-0.8780213904267842	0.9326719071540965	-1.3567236255477637	-0.8897247543261957	0.9106136751621944	-1.1238525476758967	-0.7892144435194818	0.9024014295375228	-1.0578846584069044	-0.8129464178130609	0.8826093171624075	-1.0617641272539229	-0.9115399720519293	0.9172566788333002	-1.079270797579858	-1.0721772420476696	1.3509591155645513	-1.0454005948601646	-1.0379826574642799	1.5083242815941145	-1.058179688710572	-0.9875246457763254	1.413975612971615	-1.0444455458167285	-1.0865047050907557	1.2963770080420045	-0.9185987326647659	-1.0410056970349761	1.1225559249436212	-0.8311366043929953	-0.8882127706486664	1.03687925933957	-0.9138779397812234	-1.080869442148041	1.2988218459295728	-1.1782688994416008	-1.0444010694028474	1.1264550830336226	-1.2646115695447397	-0.905239817278207	1.0583112045353613	-1.1409733975445358
89	1.4833333333333334	-1.0510367327368173	0.9443876107091593	-0.9743341135928727	-0.8758541291906747	0.9337533874039453	-0.7312521970014031	-0.8742237622505284	0.906851256520092	-0.9650294914143874	-0.7753558743111628	0.9012877599249955	-1.0401258002569813	-0.7980886364406056	0.8808155050438523	-1.0348160250582517	-0.8949632764529765	0.9125077781257289	-1.008151773425489	-1.051586749130463	0.9450020448505925	-1.118514777910649	-0.8780242755433402	0.9362319647046089	-1.3567151697406132	-0.8897290481919439	0.9141743673570824	-1.1238440022289056	-0.78921896429097	0.9059618788556854	-1.0578735120262115	-0.812950954692215	0.8861696702449617	-1.061753568635108	-0.9115446039870089	0.9208175918935013	-1.0792624946053613	-1.0726752284524594	1.3544084826423224	-1.0457200436673528	-1.03799981615649	1.5118790333131886	-1.0581876579966296	-0.9875185145272157	1.4175444528994472	-1.0444232503283977	-1.0900868736185618	1.2991871575781457	-0.9211966574095934	-1.040746375496945	1.1249647274860954	-0.8332833845426275	-0.8865888151996136	1.041464727703753	-0.9156998973889463	-1.0808758301630055	1.3023864312707016	-1.1782581953324582	-1.0444058548218385	1.1300176031341334	-1.2646031034164755	-0.9054383350410048	1.0639168287989529	-1.1394250160907484
90	1.5	-1.0510422931797252	0.947886600282172	-0.9743286862234315	-0.8758610033876555	0.9372515838690525	-0.731240342727411	-0.8756160366822832	0.910963007390543	-0.9650853393330661	-0.777173817989627	0.9055007264584122	-1.0407562098053194	-0.7998937188686702	0.8850343985842558	-1.0353700392137477	-0.8965848133662608	0.9167430056383871	-1.0080799730501582	-1.0515916161329575	0.948500700315496	-1.1185095457351342	-0.878027111235357	0.93972921219367	-1.3567068246026983	-0.8897332671251962	0.9176722395805287	-1.1238355925067878	-0.7892234039462498	0.9094595115047623	-1.0578625594968427	-0.8129554099581747	0.8896672085223849	-1.0617431924286669	-0.9115491556456022	0.9243156814756429	-1.079254325503785	-1.073915759673071	1.3576185520170823	-1.0465388122308557	-1.03801666652098	1.5153710501926072	-1.0581954434091219	-0.9874602657848423	1.4210627507948492	-1.0443602744177658	-1.0932653964439556	1.3020177429811834	-0.9235032353836732	-1.0404958296400926	1.1273563092723045	-0.8354038544827804	-0.8850186120060272	1.045979762521441	-0.9174483661520089	-1.080882131173735	1.3058881299710141	-1.1782475969252089	-1.0444105706793272	1.1335172719757274	-1.2645947215735216	-0.9056553627668403	1.0694352249290011	-1.1379231277506816
91	1.5166666666666666	-1.0510477264959828	0.9513027646607681	-0.9743233755809135	-0.8758677158940328	0.9406669708663188	-0.7312287870797347	-0.8769750507588239	0.9149786346497515	-0.9651309538573449	-0.7789513372233746	0.9096168274188462	-1.0413602738619785	-0.8016582797311086	0.8891561028826329	-1.0358995647755962	-0.8981668668399938	0.92087906445117	-1.0079994195773874	-1.0515963730068938	0.9519165378285381	-1.11850441156497	-0.8780298813515832	0.9431436719892448	-1.3566986399408678	-0.8897373870972497	0.9210873105559019	-1.12382736730604	-0.7892277373171424	0.9128743476422039	-1.0578518634644516	-0.8129597583671373	0.8930819526805706	-1.061733058043956	-0.9115536010589415	0.9277309650379417	-1.079246337548518	-1.0761489792241503	1.3605096390190312	-1.0480254550687789	-1.0380331127101452	1.5187803856394004	-1.0582030028208578	-0.9873185363759651	1.4245179415616893	-1.044232106625698	-1.095500161895173	1.3049626466888937	-0.9251252029597908	-1.040255253261345	1.129715473027366	-0.8374848812486202	-0.8835096759313463	1.0503967088924604	-0.9191160597153699	-1.080888307773819	1.3093069387523193	-1.1782371695166207	-1.0444151892799685	1.1369340979483662	-1.2645864755588867	-0.9058882370177377	1.074833841063227	-1.1364753149335238
92	1.5333333333333334	-1.0510529991761905	0.9546151882437622	-0.9743182149134326	-0.8758742256115971	0.943978637814271	-0.7312175993427038	-0.8782924630299608	0.9188734339846829	-0.9651667818002171	-0.7806772764565377	0.9136106047480227	-1.0419352064123832	-0.8033712759347683	0.8931551403629895	-1.0364022706036722	-0.899699787331912	0.9248905189321901	-1.007911462510295	-1.0516009903459413	0.9552286438390233	-1.1184994086564568	-0.8780325689361164	0.9464544392231088	-1.356690668613831	-0.8897413829241922	0.9243986715773634	-1.1238193779926122	-0.789231938069176	0.916185480079427	-1.057841489551257	-0.8129639735092312	0.896392996081012	-1.0617232277379185	-0.9115579130021063	0.931042532543568	-1.079238580467923	-1.0793319625852227	1.3630705469147633	-1.0501517726082443	-1.0380490545152767	1.5220861675900943	-1.0582102929934494	-0.9870718817757796	1.4278941733085397	-1.0440220264075815	-1.0967468972556278	1.308010736470577	-0.926029738308874	-1.0400258151663093	1.1320258548424293	-0.8395125798312447	-0.8820693981869923	1.0546867024692963	-0.9206960926007376	-1.0808943203238797	1.3126219258537406	-1.1782269830040675	-1.044419681343243	1.1402471615182221	-1.2645784205481534	-0.9061337868286976	1.08007846839146	-1.135089126412744
93	1.55	-1.0510580758657022	0.9578018645984178	-0.9743132394338445	-0.875880489262789	0.9471645836044459	-0.7312068521421243	-0.879559512936014	0.9226213995301138	-0.965193427401933	-0.7823398740513725	0.917455235587842	-1.0424782526361414	-0.8050210701120365	0.8970046704290289	-1.0368758791314328	-0.9011734517944404	0.9287505965770925	-1.0078176778994585	-1.051605437101507	0.9584150140829115	-1.1184945724578714	-0.8780351560934608	0.9496395188133879	-1.3566829668606104	-0.8897452280669451	0.9275843235055063	-1.1238116788733787	-0.7892359784879052	0.9193709112866393	-1.057831506865127	-0.8129680275937028	0.89957834177034	-1.0617137670957733	-0.9115620627797331	0.9342283834468441	-1.079231106809975	-1.0829239749336943	1.3654071114812147	-1.0525550850650496	-1.03806438656862	1.5252664357424597	-1.0582172691482705	-0.9867368762620292	1.4311654652944816	-1.0437431587612114	-1.0972536964956519	1.311088285225451	-0.9263967314313819	-1.0398086777998783	1.1342698586657318	-0.841472246956782	-0.880705162327976	1.0588195233619786	-0.9221818085971031	-1.080900126697864	1.3158110678534407	-1.1782171122428335	-1.0444240158041107	1.1434344521418105	-1.2645706156356789	-0.9063883670010856	1.0851330175273661	-1.1337721758036552
94	1.5666666666666669	-1.0510629202139186	0.9608402243990346	-0.9743084854708469	-0.875886462428407	0.9502022444102782	-0.7311966197146365	-0.88076723136161	0.9261958487955065	-0.9652116320518782	-0.783927046913521	0.9211231779289567	-1.0429867478187407	-0.8065957119992945	0.9006771354213111	-1.0373182138279624	-0.9025775064930921	0.9324318312986096	-1.0077198236912768	-1.0516096813289744	0.9614530814690176	-1.1184899397467052	-0.8780376244169907	0.9526763531285316	-1.3566755929315455	-0.8897488952668956	0.9306217045294051	-1.1238043258866541	-0.7892398301416135	0.9224080811156301	-1.0578219863412888	-0.8129718921133171	0.9026154301893894	-1.0617047434567295	-0.9115660209137575	0.9372659544892585	-1.0792239706764162	-1.086110512024796	1.367689822255333	-1.05468844580992	-1.03807900086702	1.5282986683737525	-1.0582238860186268	-0.9864113343711146	1.4342859639672276	-1.0434723930526906	-1.097322369990662	1.314109581368583	-0.9264453223534759	-1.0396049717727742	1.1364290941242063	-0.8433487239134636	-0.8794241818082587	1.062764339106048	-0.9235669045781572	-1.0809056833068214	1.3188517780146356	-1.1782076352052742	-1.0444281605651762	1.1464733963023126	-1.2645631223825875	-0.9066479602879682	1.0899603951779175	-1.132531969049135
95	1.5833333333333333	-1.0510674979509587	0.9637090583812412	-0.9743039874300871	-0.8758921033291003	0.9530704161893916	-0.731186971486849	-0.8819072050960797	0.9295716890598683	-0.9652222585110444	-0.7854274043561602	0.9245885013297824	-1.0434584045979043	-0.8080839431312284	0.9041465936404512	-1.0377274446643565	-0.9039022534557531	0.9359083971197442	-1.0076197456706188	-1.0516136928861297	0.9643216388463156	-1.118485545625878	-0.8780399565526849	0.9555437439648932	-1.3566686023149446	-0.8897523588668076	0.9334896124938656	-1.1237973719086465	-0.7892434663129289	0.9252757889904255	-1.0578129947107597	-0.8129755402834915	0.9054830613128162	-1.0616962201940099	-0.9115697596502687	0.9401340421480948	-1.0792172231734578	-1.0883479098876283	1.3700266851541987	-1.0561863549169381	-1.0380927960037127	1.531161701352176	-1.0582301019183262	-0.9863259124222851	1.4371796044586946	-1.043390871755182	-1.0971954436805074	1.3170026048099348	-0.9263517104490235	-1.0394156788790516	1.138485816793005	-0.845127622779045	-0.878232761078938	1.0664922506564176	-0.9248461733118721	-1.0809109486865434	1.321722830726005	-1.1781986267496405	-1.0444320851597806	1.1493427808290875	-1.264555999893203	-0.9069084075753839	1.094525599159997	-1.1313751725920747
